inDegrees=no
num_controls=7
num_derivatives=13
num_iterations=117
num_multipliers=7
num_parameters=0
num_slacks=7
num_states=26
objective=5.421703
objective_accelerations=0.522726
objective_balance=0.015219
objective_effort=0.417674
objective_height=4.442258
objective_ligament=0.023827
solver_duration=1025.629111
status=Solve_Succeeded
success=true
DataType=double
version=3
OpenSimVersion=4.4-2022-07-23-0e9fedc
endheader
time	/jointset/ground_pelvis/pelvis_tilt/value	/jointset/ground_pelvis/pelvis_tx/value	/jointset/ground_pelvis/pelvis_ty/value	/jointset/hip_r/hip_flexion_r/value	/jointset/hip_r/hip_adduction_r/value	/jointset/hip_r/hip_rotation_r/value	/jointset/back/lumbar_extension/value	/jointset/patellofemoral_r/patellar_flexion_r/value	/jointset/knee_r/knee_flexion_r/value	/jointset/knee_r/knee_adduction_r/value	/jointset/knee_r/knee_rotation_r/value	/jointset/ankle_r/ankle_angle_r/value	/jointset/subtalar_r/subtalar_angle_r/value	/jointset/ground_pelvis/pelvis_tilt/speed	/jointset/ground_pelvis/pelvis_tx/speed	/jointset/ground_pelvis/pelvis_ty/speed	/jointset/hip_r/hip_flexion_r/speed	/jointset/hip_r/hip_adduction_r/speed	/jointset/hip_r/hip_rotation_r/speed	/jointset/back/lumbar_extension/speed	/jointset/patellofemoral_r/patellar_flexion_r/speed	/jointset/knee_r/knee_flexion_r/speed	/jointset/knee_r/knee_adduction_r/speed	/jointset/knee_r/knee_rotation_r/speed	/jointset/ankle_r/ankle_angle_r/speed	/jointset/subtalar_r/subtalar_angle_r/speed	/forceset/tau_hip_flexion_r	/forceset/tau_hip_adduction_r	/forceset/tau_hip_rotation_r	/forceset/tau_knee_flexion_r	/forceset/tau_ankle_angle_r	/forceset/tau_subtalar_angle_r	/forceset/tau_lumbar_extension	lambda_cid13_p0	lambda_cid14_p0	lambda_cid14_p1	lambda_cid14_p2	lambda_cid14_p3	lambda_cid14_p4	lambda_cid14_p5	/jointset/ground_pelvis/pelvis_tilt/accel	/jointset/ground_pelvis/pelvis_tx/accel	/jointset/ground_pelvis/pelvis_ty/accel	/jointset/hip_r/hip_flexion_r/accel	/jointset/hip_r/hip_adduction_r/accel	/jointset/hip_r/hip_rotation_r/accel	/jointset/back/lumbar_extension/accel	/jointset/patellofemoral_r/patellar_flexion_r/accel	/jointset/knee_r/knee_flexion_r/accel	/jointset/knee_r/knee_adduction_r/accel	/jointset/knee_r/knee_rotation_r/accel	/jointset/ankle_r/ankle_angle_r/accel	/jointset/subtalar_r/subtalar_angle_r/accel	gamma_cid13_p0	gamma_cid14_p0	gamma_cid14_p1	gamma_cid14_p2	gamma_cid14_p3	gamma_cid14_p4	gamma_cid14_p5
0.5	-0.1202782509032386	0.03653633333436802	0.8209619534559867	0.8275519406049475	-0.2193334407415781	-0.1399333854992261	-0.639905001201126	0.9064159036105699	0.9064159036105685	-0.05347078635345002	0.1745275013664924	0.2915760093905117	0.1431844441524864	-0.3153683315814452	-0.1905650052430799	-0.4437288600005133	1.696739928842436	-0.01441519535864729	0.1518881100314685	-0.739106843034219	1.802228566874475	1.802228566874479	-0.4468914328162538	7.768761427109512e-06	0.5278584266497242	0.1899405081040366	-0.184569046486235	0.005014286397138273	0.01596721856564635	-0.278374393516742	-0.01024228496229549	0.004060429375896113	0.2316462824656148	-11.08104732546014	-45.53554011080512	-4.271353842687748	-1.110923451526666	-2.644731257172369	-642.8965029770311	65.84155642890524	0.2433559563964604	0.5148195310206616	-0.3751662404305027	-1.164830748598729	-0.2309513912898783	-0.6232288166041873	1.674121859422181	-1.278638819854358	-1.278638819854353	0.4068405283361332	0.0008233050439881038	-0.5094967357167328	-0.358283447029949	-8.397715345302789e-08	-1.190183212956883e-07	4.522011069853124e-08	-1.355931983408382e-06	6.203661693735988e-08	-1.921423166057479e-07	1.91418285397223e-07
0.51	-0.123419163729154	0.03465660189000502	0.8165068977708997	0.844458614189188	-0.2194896651613923	-0.1384440423801037	-0.6472115924745874	0.9243718936714682	0.9243718936714237	-0.05791666349285763	0.1745275824666429	0.2968281131686706	0.1450645455036583	-0.3127628656755733	-0.1853650691859996	-0.4471832016290171	1.684367407083918	-0.01681646534282421	0.1459882935310132	-0.7221233619905214	1.78872528406174	1.788725284061744	-0.4422543410310568	8.693025726602211e-06	0.5224864414306832	0.1860529104027358	-0.1905093739227785	0.005797976403275883	0.01618026748120176	-0.2826633337336142	-0.01159047221242484	0.004719660517821884	0.2372412544727128	-10.14463458577417	-46.21633728613276	-4.236674294811211	-0.9651944388527284	-2.545103096859278	-647.2620835978106	66.28805296612036	0.276833601383522	0.5250266905181641	-0.3157449694920096	-1.307587851540386	-0.2429412360709591	-0.5723731157349463	1.723668676902096	-1.422780242170222	-1.422780242170337	0.4965768966902509	-0.0005083295577741286	-0.5624355949009621	-0.4081934765919468	-9.384317179021125e-08	-1.263843403974798e-07	9.434824237296092e-08	-1.435786379234908e-06	5.969769850437074e-08	-1.93730821670187e-07	2.067361267473022e-07
0.52	-0.1265324835572699	0.03282935901570605	0.8120202633004415	0.8612347375634234	-0.2196695475678724	-0.1370135004357582	-0.6543457074476016	0.9421855294581497	0.9421855294581616	-0.06231528303582302	0.1745276257460901	0.3020242198586571	0.1469049317688351	-0.309849732021672	-0.1800672912302757	-0.4500446170747815	1.670629886842915	-0.01914679269059942	0.1401278750718044	-0.7046115829444832	1.773757712041515	1.773757712041518	-0.4374399135227134	2.046227839911529e-07	0.5166590090155154	0.1819974909049701	-0.1964497013593659	0.006581666409495276	0.01639331639727469	-0.2869522739504471	-0.01293865946253232	0.005378891659872771	0.2428362264797622	-9.213183071723225	-46.898485949547	-4.199907298173016	-0.8224533654753376	-2.467721262851254	-651.6537179554099	66.79163601190793	0.3048895060023092	0.5343879107493278	-0.2565810038826343	-1.437830445095676	-0.2167628640094418	-0.615349208354792	1.779781459890229	-1.57149666135266	-1.57149666135266	0.4423076729653488	-0.001059228404602924	-0.6005861749421421	-0.391847806322852	-1.121593726679658e-07	-1.299648573415198e-07	2.894246823699329e-07	-1.489314076949941e-06	4.008388307780304e-08	-1.997170105934932e-07	3.13760975544598e-07
0.53	-0.1296150859920333	0.03105553098456211	0.8075080259632985	0.8778666370057029	-0.219872624191092	-0.1356411123787385	-0.6613022887824248	0.9598423090775624	0.9598423090775871	-0.06666416754713811	0.1745279294240265	0.3071597591213492	0.1487034933355322	-0.3066198755675188	-0.1746868721184752	-0.452300844502163	1.65552871905178	-0.02146074432668465	0.1344090457685367	-0.6866306769759124	1.757372279287525	1.757372279287526	-0.4322565715965558	4.484069058691266e-05	0.5103778892429917	0.177677944047677	-0.2022706516087365	0.007589423918014421	0.01668809975598591	-0.2913695612977009	-0.01415338988433254	0.005703794625511765	0.248305381370983	-8.309930397520237	-47.57315140008708	-4.339261072188689	-0.6148165685643822	-2.334188299289159	-656.0980294024399	66.9776891600616	0.3396508582330869	0.5415912995630987	-0.1948833066788629	-1.579471081534296	-0.2377442556299639	-0.5414809317229204	1.818346221914691	-1.705932109806837	-1.705932109807133	0.5684550474398267	0.004589235040572061	-0.6525367782943056	-0.4576585284976517	-1.057907569889414e-07	-8.510071660012549e-08	6.092760760148728e-07	-1.073941019357926e-06	-1.926726595643325e-08	-1.687381799210209e-07	5.036315356264006e-07
0.54	-0.1326638664336342	0.02933585162216969	0.8029762784129792	0.8943408825429784	-0.220098646919122	-0.134324178842827	-0.6680768408462491	0.9773284612639817	0.9773284612639678	-0.07095879712020083	0.1745281523047246	0.3122303548063385	0.1504577293530429	-0.3030853333889234	-0.1692375574799714	-0.4539466597100758	1.639099105844162	-0.02373601365164719	0.1290369708488696	-0.6682057287443748	1.739632225438143	1.739632225438142	-0.4265889258704507	-1.595481489659943e-05	0.5036702934749945	0.1731323810677825	-0.2080916018581663	0.008597181426543012	0.01698288311430341	-0.2957868486450081	-0.01536812030612694	0.006028697591172358	0.2537745362621521	-7.457397248885951	-48.24628677905618	-4.470693502679749	-0.4171846719354586	-2.233449459956801	-660.5315152024735	67.23252679810406	0.3658266508907679	0.5481670160899426	-0.1344985599888975	-1.7035195283924	-0.2090264017848018	-0.5459983316344658	1.868589912483541	-1.842420880431185	-1.842420880431184	0.5391684329547489	-0.02214554306221407	-0.6858813740369134	-0.4370510308429816	-7.211128043858667e-08	1.336176881451574e-08	1.067176354546928e-06	-1.397841473836389e-07	-1.22583124514048e-07	-9.686188075960174e-08	7.851611805336161e-07
